<?xml version="1.0" standalone="no"?><!DOCTYPE svg PUBLIC "-//W3C//DTD SVG 1.1//EN" "http://www.w3.org/Graphics/SVG/1.1/DTD/svg11.dtd"><svg t="1553946821131" class="icon" style="" viewBox="0 0 1024 1024" version="1.1" xmlns="http://www.w3.org/2000/svg" p-id="1215" xmlns:xlink="http://www.w3.org/1999/xlink" width="200" height="200"><defs><style type="text/css"></style></defs><path d="M16.16568 848.651366c-5.341658-15.670911-15.245216-31.31624-15.331174-47.015803-1.063215-193.440687-0.898463-386.888538-0.542352-580.334341 0.088004-47.521317 16.167215-63.185065 64.186881-63.219857 298.290687-0.215918 596.582397-0.214894 894.873084-0.002047 48.1353 0.033769 64.23907 15.573697 64.336284 63.171762 0.39295 193.445804 0.535189 386.893654-0.524956 580.334341-0.085958 15.70468-9.967002 31.356149-15.296381 47.0332l-29.693276-34.769898-272.473695-333.294922 252.632811-268.778537-1.167592-2.172479a63739348.838991 63739348.838991 0 0 0-445.086008 349.282035L67.040371 210.052017l-1.597381 3.188622L319.049988 481.665111c-80.927147 97.03194-164.222225 196.413392-246.704798 296.463062-9.56075 11.597129-14.618952 26.90579-21.7647 40.494273L16.16568 848.651366z" p-id="1216" fill="#ffffff"></path><path d="M16.16568 848.651366l34.41481-30.02892 339.245448-292.202015 118.834502 140.505058 126.404922-141.977596c105.430214 92.741217 202.357777 178.459484 300.015981 263.335571 12.401448 10.778484 28.633131 17.149589 43.090401 25.563212l29.693276 34.769898c-15.438621 5.817496-30.860868 16.658402-46.318932 16.709567-299.565726 1.001817-599.136569 1.003863-898.702296 0.001023-15.57779-0.050142-31.119765-10.869558-46.678112-16.675798z" p-id="1217" fill="#ffffff"></path></svg>